<svg xmlns="http://www.w3.org/2000/svg" xmlns:xlink="http://www.w3.org/1999/xlink" fill="none" version="1.1" width="16" height="16" viewBox="0 0 16 16"><defs><clipPath id="master_svg0_19_47549"><rect x="0" y="0" width="16" height="16" rx="0"/></clipPath><clipPath id="master_svg1_19_47551"><rect x="0" y="0" width="15.999999046325684" height="15.999999046325684" rx="0"/></clipPath></defs><g clip-path="url(#master_svg0_19_47549)"><g><g clip-path="url(#master_svg1_19_47551)"><g><path d="M11.246,3.792449951171875C11.246,3.792449951171875,10.5389,4.499540951171875,10.5389,4.499540951171875C10.5389,4.499540951171875,13.5389,7.499449951171875,13.5389,7.499449951171875C13.5389,7.499449951171875,0.5,7.499449951171875,0.5,7.499449951171875C0.5,7.499449951171875,0.5,8.499479951171875,0.5,8.499479951171875C0.5,8.499479951171875,13.5388,8.499479951171875,13.5388,8.499479951171875C13.5388,8.499479951171875,10.5389,11.499279951171875,10.5389,11.499279951171875C10.5389,11.499279951171875,11.246,12.206369951171874,11.246,12.206369951171874C11.246,12.206369951171874,15.4531,7.999419951171875,15.4531,7.999419951171875C15.4531,7.999419951171875,11.246,3.792449951171875,11.246,3.792449951171875C11.246,3.792449951171875,11.246,3.792449951171875,11.246,3.792449951171875Z" fill="#fff" fill-opacity="1"/></g></g></g></g></svg>